<svg width="24" height="14" viewBox="0 0 24 14" fill="none" xmlns="http://www.w3.org/2000/svg">
<path d="M21.8909 13.9916C21.3613 13.9894 20.8543 13.7772 20.4809 13.4016L11.8909 4.82159L3.30091 13.4016C2.91831 13.7292 2.42616 13.9005 1.92281 13.881C1.41946 13.8616 0.941976 13.6529 0.585787 13.2967C0.229598 12.9405 0.0209339 12.463 0.00149156 11.9597C-0.0179507 11.4563 0.153261 10.9642 0.480914 10.5816L10.4809 0.581586C10.8556 0.209084 11.3625 0 11.8909 0C12.4193 0 12.9262 0.209084 13.3009 0.581586L23.3009 10.5816C23.5789 10.8613 23.7681 11.2169 23.8445 11.6037C23.921 11.9906 23.8814 12.3914 23.7307 12.7558C23.5801 13.1202 23.325 13.432 22.9977 13.6519C22.6703 13.8717 22.2853 13.9899 21.8909 13.9916Z" fill="black"/>
</svg>
